<svg xmlns="http://www.w3.org/2000/svg" viewBox="0 0 400 120" fill="none">
  <defs>
    <linearGradient id="lg" x1="0" y1="0" x2="1" y2="1">
      <stop offset="0%" stop-color="#52b788"/>
      <stop offset="100%" stop-color="#95d5b2"/>
    </linearGradient>
    <linearGradient id="lgh" x1="0" y1="0" x2="0" y2="1">
      <stop offset="0%" stop-color="#2d6a4f"/>
      <stop offset="100%" stop-color="#1b4332"/>
    </linearGradient>
  </defs>
  <!-- House icon -->
  <g transform="translate(20,20)">
    <path d="M40 80 V45 L20 28 L0 45 V80 H40Z" fill="url(#lg)" opacity="0.9"/>
    <rect x="15" y="58" width="12" height="22" fill="#0f2a1e" rx="2"/>
    <path d="M5 45 L20 32 L35 45" stroke="#95d5b2" stroke-width="2" fill="none"/>
    <!-- Heart inside house -->
    <path d="M26 42 C26 38 30 36 33 39 C36 36 40 38 40 42 C40 47 33 52 33 52 C33 52 26 47 26 42Z" fill="#52b788" opacity="0.6"/>
  </g>
  <text x="80" y="68" font-family="'PingFang SC','Microsoft YaHei',sans-serif" font-size="32" font-weight="700" fill="#d8f3dc" letter-spacing="3">至念</text>
  <text x="80" y="95" font-family="'PingFang SC','Microsoft YaHei',sans-serif" font-size="14" font-weight="300" fill="#52b788" letter-spacing="6">ZHINIAN CARE</text>
</svg>